<mxfile host="app.diagrams.net" modified="2023-04-07T10:35:42.602Z" agent="Mozilla/5.0 (Windows NT 10.0; Win64; x64; rv:109.0) Gecko/20100101 Firefox/111.0" etag="QUDpzHEi67R2Nhtud6q1" version="21.1.4" type="github">
  <diagram name="Page-1" id="VBKTgEruh5S9xeKgSnHG">
    <mxGraphModel dx="1050" dy="534" grid="1" gridSize="10" guides="1" tooltips="1" connect="1" arrows="1" fold="1" page="1" pageScale="1" pageWidth="827" pageHeight="1169" math="0" shadow="0">
      <root>
        <mxCell id="0" />
        <mxCell id="1" parent="0" />
        <mxCell id="dUjk69qwuX_pwRfW-fi6-1" value="Github&amp;nbsp; cloud" style="whiteSpace=wrap;html=1;aspect=fixed;" vertex="1" parent="1">
          <mxGeometry x="155" y="70" width="150" height="150" as="geometry" />
        </mxCell>
        <mxCell id="dUjk69qwuX_pwRfW-fi6-2" value="Github Enterprise (on prem)" style="whiteSpace=wrap;html=1;aspect=fixed;" vertex="1" parent="1">
          <mxGeometry x="170" y="330" width="190" height="190" as="geometry" />
        </mxCell>
        <mxCell id="dUjk69qwuX_pwRfW-fi6-3" value="omni-ivr-mw-system" style="rounded=1;whiteSpace=wrap;html=1;" vertex="1" parent="1">
          <mxGeometry x="180" y="180" width="100" height="30" as="geometry" />
        </mxCell>
        <mxCell id="dUjk69qwuX_pwRfW-fi6-4" value="omni-ivr-mw-system" style="rounded=1;whiteSpace=wrap;html=1;" vertex="1" parent="1">
          <mxGeometry x="190" y="440" width="95" height="30" as="geometry" />
        </mxCell>
        <mxCell id="dUjk69qwuX_pwRfW-fi6-5" value="Config Server" style="rounded=0;whiteSpace=wrap;html=1;" vertex="1" parent="1">
          <mxGeometry x="550" y="230" width="120" height="240" as="geometry" />
        </mxCell>
        <mxCell id="dUjk69qwuX_pwRfW-fi6-6" value="JENKINS" style="rounded=1;whiteSpace=wrap;html=1;" vertex="1" parent="1">
          <mxGeometry x="570" y="40" width="120" height="60" as="geometry" />
        </mxCell>
        <mxCell id="dUjk69qwuX_pwRfW-fi6-7" value="" style="endArrow=classic;html=1;rounded=0;exitX=0;exitY=0.5;exitDx=0;exitDy=0;" edge="1" parent="1" source="dUjk69qwuX_pwRfW-fi6-6" target="dUjk69qwuX_pwRfW-fi6-1">
          <mxGeometry width="50" height="50" relative="1" as="geometry">
            <mxPoint x="310" y="140" as="sourcePoint" />
            <mxPoint x="360" y="90" as="targetPoint" />
          </mxGeometry>
        </mxCell>
        <mxCell id="dUjk69qwuX_pwRfW-fi6-8" value="" style="endArrow=classic;html=1;rounded=0;entryX=0.5;entryY=0;entryDx=0;entryDy=0;exitX=0.325;exitY=1.067;exitDx=0;exitDy=0;exitPerimeter=0;" edge="1" parent="1" source="dUjk69qwuX_pwRfW-fi6-6" target="dUjk69qwuX_pwRfW-fi6-5">
          <mxGeometry width="50" height="50" relative="1" as="geometry">
            <mxPoint x="570" y="180" as="sourcePoint" />
            <mxPoint x="620" y="130" as="targetPoint" />
          </mxGeometry>
        </mxCell>
        <mxCell id="dUjk69qwuX_pwRfW-fi6-9" value="centralized config" style="rounded=0;whiteSpace=wrap;html=1;" vertex="1" parent="1">
          <mxGeometry x="200" y="480" width="70" height="30" as="geometry" />
        </mxCell>
        <mxCell id="dUjk69qwuX_pwRfW-fi6-10" value="" style="endArrow=classic;html=1;rounded=0;entryX=1;entryY=0.5;entryDx=0;entryDy=0;exitX=-0.017;exitY=0.7;exitDx=0;exitDy=0;exitPerimeter=0;" edge="1" parent="1" source="dUjk69qwuX_pwRfW-fi6-5" target="dUjk69qwuX_pwRfW-fi6-9">
          <mxGeometry width="50" height="50" relative="1" as="geometry">
            <mxPoint x="260" y="550" as="sourcePoint" />
            <mxPoint x="390" y="440" as="targetPoint" />
          </mxGeometry>
        </mxCell>
        <mxCell id="dUjk69qwuX_pwRfW-fi6-12" value="" style="endArrow=classic;html=1;rounded=0;entryX=1;entryY=0.25;entryDx=0;entryDy=0;exitX=0;exitY=1;exitDx=0;exitDy=0;" edge="1" parent="1" source="dUjk69qwuX_pwRfW-fi6-6" target="dUjk69qwuX_pwRfW-fi6-4">
          <mxGeometry width="50" height="50" relative="1" as="geometry">
            <mxPoint x="400" y="260" as="sourcePoint" />
            <mxPoint x="450" y="210" as="targetPoint" />
          </mxGeometry>
        </mxCell>
      </root>
    </mxGraphModel>
  </diagram>
</mxfile>
